<?xml version="1.0" encoding="UTF-8"?>
<!-- army_knownworld901 unit icon; recolor by overriding the CSS variables
     for fill and stroke on the svg root. -->
<svg xmlns="http://www.w3.org/2000/svg" viewBox="0 0 26 30" width="26" height="30">
<defs><style>
/* Default colors. Override .fill / .stroke from outside to recolor by empire. */
.fill   { fill: #c8d3df; stroke: #1f2a36; stroke-width: 1; stroke-linejoin: round; }
.stroke { fill: none;    stroke: #1f2a36; stroke-width: 1; stroke-linejoin: round; stroke-linecap: round; }

</style></defs>
  <path class="fill" data-layer="constructSpearPath" d="M3.2 22.28 L2.15 22.25 L0.26 27.0 L4.11 23.76 L3.88 22.82 C10.86 15.55 17.67 8.37 24.14 1.15 L23.48 0.47 C17.18 7.68 9.56 15.55 3.2 22.28 Z"/>
  <path class="fill" data-layer="constructBodyPath" d="M21.09 20.15 L21.2 20.73 L21.22 21.39 L21.55 22.26 L21.59 22.88 L21.38 23.1 L21.8 25.52 L21.78 26.67 L22.03 27.17 L22.12 27.61 L22.24 28.48 L22.81 29.14 L22.81 29.57 L22.33 29.67 L21.36 29.61 L20.69 29.36 L20.57 28.56 L20.34 27.51 L20.34 26.99 L19.41 24.43 L19.29 23.67 L18.72 23.41 L18.54 23.04 L18.37 22.5 L18.39 22.06 L18.16 21.67 L18.2 20.87 L17.99 20.18 L16.52 20.18 L16.42 20.45 L16.52 21.19 L16.27 22.04 L16.23 22.82 L16.08 23.16 L15.81 23.2 L15.77 23.51 L15.54 23.97 L15.35 25.26 L14.89 26.26 L14.64 27.61 L14.68 28.02 L14.55 28.18 L14.47 29.34 L13.92 29.65 L12.71 29.57 L12.1 29.55 L12.04 29.34 L12.52 28.66 L12.9 27.87 L13.13 25.48 L13.32 23.55 L13.34 22.96 L13.09 22.54 L12.96 21.94 L13.28 21.07 L13.47 20.81 L13.47 19.64 L13.07 19.36 L13.26 18.27 L13.4 17.81 L13.13 17.69 L13.53 15.94 L13.47 15.71 C13.55 15.16 14.32 13.91 14.22 13.46 L14.66 12.37 L14.76 11.79 L14.66 11.75 L14.64 11.02 L14.41 9.09 L14.18 9.03 L13.53 9.8 C12.28 8.94 12.31 8.92 11.09 8.01 L11.09 8.01 L12.46 6.86 L14.14 5.83 L15.31 5.33 C15.82 4.82 15.69 4.81 15.95 4.15 C15.95 4.15 15.82 3.97 15.79 3.86 C15.71 3.53 15.7 3.18 15.74 2.85 C15.81 2.37 15.97 1.71 16.15 1.44 C16.44 1.0 16.83 0.77 17.31 0.59 C17.31 0.59 18.1 0.99 18.29 1.44 C18.48 1.88 18.63 2.56 18.67 2.88 C18.7 3.21 18.67 3.8 18.66 3.8 L18.44 4.12 C18.62 4.49 18.8 4.85 19.0 5.21 C19.59 5.46 20.16 5.74 20.73 6.03"/>
  <path class="stroke" data-layer="constructBodyLinesPath" d="M17.27 2.42 L17.26 3.53 M20.51 17.69 C18.11 18.19 15.71 18.29 13.31 17.73 M19.33 23.81 C19.9 23.73 20.94 23.49 21.36 23.16 M13.44 23.08 C14.03 23.29 15.02 23.31 15.85 23.21 M16.04 4.23 C17.3 5.59 17.43 5.24 18.32 4.25 M14.31 5.98 C16.75 7.89 17.96 7.72 20.06 6.24 M20.7 19.52 C18.29 20.02 15.89 20.12 13.49 19.56 M15.97 2.14 C17.23 2.49 17.89 2.42 18.61 2.14 M14.94 11.98 C16.64 12.33 17.54 12.12 19.13 11.89"/>
  <path class="fill" data-layer="constructArmPath" d="M11.47 8.57 L9.8 13.6 L9.16 14.43 C9.03 14.86 8.98 15.43 9.03 15.87 C9.04 15.94 9.2 16.03 9.24 15.97 L9.46 15.59 L9.85 15.48 C9.89 15.54 9.98 15.58 10.01 15.62 C10.22 15.97 10.03 15.81 10.02 16.04 C10.02 16.22 10.15 16.15 10.31 16.29 C10.44 16.4 10.34 16.39 10.52 15.91 C11.02 14.8 10.3 14.83 10.94 14.08 L11.32 13.55 L12.99 9.83"/>
  <path class="fill" data-layer="constructShieldPath" d="M18.87 11.74 C19.17 14.65 21.04 19.76 21.04 19.76 L21.55 21.24 L22.64 24.0 C23.93 19.92 25.27 16.32 25.78 12.2 C26.13 9.39 25.24 5.83 22.2 4.55 L21.46 4.93 L20.62 5.63 C18.64 7.4 18.65 9.48 18.87 11.74"/>
  <path class="stroke" data-layer="constructShieldLogoPath" d="M20.89 9.59 L24.01 12.67 M20.78 12.72 L24.04 9.6 M20.35 11.16 L24.53 11.12 M22.42 8.83 L22.5 13.53 M23.84 11.15 C23.84 12.03 23.2 12.75 22.42 12.75 C21.63 12.75 21.0 12.03 21.0 11.15 C21.0 10.27 21.63 9.55 22.42 9.55 C23.2 9.55 23.84 10.27 23.84 11.15"/>
</svg>